<?xml version="1.0" encoding="UTF-8"?>
<!DOCTYPE svg PUBLIC "-//W3C//DTD SVG 1.1//EN" "http://www.w3.org/Graphics/SVG/1.1/DTD/svg11.dtd">
<svg xmlns="http://www.w3.org/2000/svg" version="1.1" width="596px" height="337px" style="shape-rendering:geometricPrecision; text-rendering:geometricPrecision; image-rendering:optimizeQuality; fill-rule:evenodd; clip-rule:evenodd" xmlns:xlink="http://www.w3.org/1999/xlink">
<g><path style="opacity:1" fill="#030708" d="M -0.5,-0.5 C 198.167,-0.5 396.833,-0.5 595.5,-0.5C 595.5,111.833 595.5,224.167 595.5,336.5C 396.833,336.5 198.167,336.5 -0.5,336.5C -0.5,224.167 -0.5,111.833 -0.5,-0.5 Z"/></g>
<g><path style="opacity:1" fill="#dd5e22" d="M 152.5,117.5 C 183.47,115.339 203.303,129.006 212,158.5C 214.169,188.977 200.669,208.477 171.5,217C 141.071,219.877 121.571,206.711 113,177.5C 109.922,146.625 123.089,126.625 152.5,117.5 Z"/></g>
<g><path style="opacity:1" fill="#5d6363" d="M 328.5,132.5 C 328.666,136.514 328.499,140.514 328,144.5C 327.283,143.956 326.783,143.289 326.5,142.5C 327.167,139.167 327.833,135.833 328.5,132.5 Z"/></g>
<g><path style="opacity:1" fill="#dae4e3" d="M 456.5,129.5 C 461.993,128.178 464.493,130.178 464,135.5C 462.192,137.396 460.025,137.896 457.5,137C 455.285,134.758 454.952,132.258 456.5,129.5 Z"/></g>
<g><path style="opacity:1" fill="#0a0908" d="M 161.5,133.5 C 162.477,136.287 162.81,139.287 162.5,142.5C 162.09,146.902 160.423,150.735 157.5,154C 149,159.167 140.5,164.333 132,169.5C 129.037,158.268 132.537,149.768 142.5,144C 148.86,140.488 155.194,136.988 161.5,133.5 Z"/></g>
<g><path style="opacity:1" fill="#7f3816" d="M 161.5,133.5 C 161.56,132.957 161.893,132.624 162.5,132.5C 163.806,135.98 163.806,139.313 162.5,142.5C 162.81,139.287 162.477,136.287 161.5,133.5 Z"/></g>
<g><path style="opacity:1" fill="#d7e1e0" d="M 226.5,140.5 C 229.167,140.5 231.833,140.5 234.5,140.5C 234.343,141.873 234.51,143.207 235,144.5C 243.985,137.621 249.985,139.621 253,150.5C 253.499,155.823 253.666,161.156 253.5,166.5C 250.5,166.5 247.5,166.5 244.5,166.5C 244.666,160.824 244.499,155.157 244,149.5C 241,146.833 238,146.833 235,149.5C 234.501,155.157 234.334,160.824 234.5,166.5C 231.833,166.5 229.167,166.5 226.5,166.5C 226.5,157.833 226.5,149.167 226.5,140.5 Z"/></g>
<g><path style="opacity:1" fill="#e2eceb" d="M 328.5,132.5 C 330.833,132.5 333.167,132.5 335.5,132.5C 335.5,143.5 335.5,154.5 335.5,165.5C 333.167,165.5 330.833,165.5 328.5,165.5C 328.655,162.147 327.988,161.814 326.5,164.5C 315.638,168.978 309.638,165.312 308.5,153.5C 309.927,142.126 315.927,138.459 326.5,142.5C 326.783,143.289 327.283,143.956 328,144.5C 328.499,140.514 328.666,136.514 328.5,132.5 Z"/></g>
<g><path style="opacity:1" fill="#e2eceb" d="M 405.5,140.5 C 408.167,140.5 410.833,140.5 413.5,140.5C 413.367,145.272 414.7,145.438 417.5,141C 422.553,139.668 426.886,140.835 430.5,144.5C 436.993,138.916 443.159,139.249 449,145.5C 449.5,152.492 449.666,159.492 449.5,166.5C 446.833,166.5 444.167,166.5 441.5,166.5C 441.666,160.824 441.499,155.157 441,149.5C 438,146.833 435,146.833 432,149.5C 431.501,155.157 431.334,160.824 431.5,166.5C 428.833,166.5 426.167,166.5 423.5,166.5C 423.666,160.824 423.499,155.157 423,149.5C 420,146.833 417,146.833 414,149.5C 413.501,155.157 413.334,160.824 413.5,166.5C 410.833,166.5 408.167,166.5 405.5,166.5C 405.5,157.833 405.5,149.167 405.5,140.5 Z"/></g>
<g><path style="opacity:1" fill="#e0eae9" d="M 470.5,140.5 C 473.167,140.5 475.833,140.5 478.5,140.5C 478.974,144.157 480.307,144.324 482.5,141C 487.437,139.631 491.604,140.797 495,144.5C 496.429,151.719 496.929,159.053 496.5,166.5C 493.833,166.5 491.167,166.5 488.5,166.5C 488.666,160.824 488.499,155.157 488,149.5C 485,146.833 482,146.833 479,149.5C 478.501,155.157 478.334,160.824 478.5,166.5C 475.833,166.5 473.167,166.5 470.5,166.5C 470.5,157.833 470.5,149.167 470.5,140.5 Z"/></g>
<g><path style="opacity:1" fill="#ebf1ee" d="M 178.5,142.5 C 191.362,147.224 196.029,156.224 192.5,169.5C 187.198,167.264 182.698,163.931 179,159.5C 178.392,157.846 177.892,156.179 177.5,154.5C 177.183,150.298 177.517,146.298 178.5,142.5 Z"/></g>
<g><path style="opacity:1" fill="#e2eceb" d="M 283.5,154.5 C 277.5,154.5 271.5,154.5 265.5,154.5C 265.263,155.791 265.596,156.791 266.5,157.5C 268.805,161.291 271.472,161.458 274.5,158C 277.146,157.503 279.813,157.336 282.5,157.5C 282.21,161.961 279.877,164.795 275.5,166C 262.859,167.692 257.025,162.192 258,149.5C 261.328,141.715 267.161,138.882 275.5,141C 281.886,143.269 284.552,147.769 283.5,154.5 Z"/></g>
<g><path style="opacity:1" fill="#e2eceb" d="M 340.5,140.5 C 343.572,140.183 346.572,140.516 349.5,141.5C 351.036,146.274 352.87,150.941 355,155.5C 356.854,150.468 358.687,145.468 360.5,140.5C 363.518,140.335 366.518,140.502 369.5,141C 363.624,152.913 358.457,165.08 354,177.5C 350.927,178.617 347.76,178.784 344.5,178C 346.92,173.995 348.92,169.829 350.5,165.5C 346.409,157.468 343.076,149.135 340.5,140.5 Z"/></g>
<g><path style="opacity:1" fill="#e7b79d" d="M 178.5,142.5 C 177.517,146.298 177.183,150.298 177.5,154.5C 176.189,150.317 176.189,145.984 177.5,141.5C 178.107,141.624 178.44,141.957 178.5,142.5 Z"/></g>
<g><path style="opacity:1" fill="#141718" d="M 268.5,146.5 C 272.577,146.017 274.91,147.684 275.5,151.5C 272.102,151.82 268.768,151.487 265.5,150.5C 266.524,149.148 267.524,147.815 268.5,146.5 Z"/></g>
<g><path style="opacity:1" fill="#d3dddc" d="M 455.5,140.5 C 458.5,140.5 461.5,140.5 464.5,140.5C 464.5,149.167 464.5,157.833 464.5,166.5C 461.5,166.5 458.5,166.5 455.5,166.5C 455.5,157.833 455.5,149.167 455.5,140.5 Z"/></g>
<g><path style="opacity:1" fill="#101313" d="M 319.5,147.5 C 328.818,147.655 330.818,151.488 325.5,159C 317.992,160.141 315.492,156.974 318,149.5C 318.717,148.956 319.217,148.289 319.5,147.5 Z"/></g>
<g><path style="opacity:1" fill="#b7c0bf" d="M 398.5,140.5 C 399.493,148.984 399.826,157.651 399.5,166.5C 396.615,166.806 393.948,166.473 391.5,165.5C 393.833,165.5 396.167,165.5 398.5,165.5C 398.5,157.167 398.5,148.833 398.5,140.5 Z"/></g>
<g><path style="opacity:1" fill="#dde6e5" d="M 288.5,140.5 C 291.167,140.5 293.833,140.5 296.5,140.5C 296.238,141.978 296.571,143.311 297.5,144.5C 299.524,141.794 302.19,140.461 305.5,140.5C 305.5,143.167 305.5,145.833 305.5,148.5C 301.683,147.826 298.85,149.159 297,152.5C 296.501,157.155 296.334,161.821 296.5,166.5C 293.833,166.5 291.167,166.5 288.5,166.5C 288.5,157.833 288.5,149.167 288.5,140.5 Z"/></g>
<g><path style="opacity:1" fill="#e2eceb" d="M 398.5,140.5 C 398.5,148.833 398.5,157.167 398.5,165.5C 396.167,165.5 393.833,165.5 391.5,165.5C 391.649,164.448 391.483,163.448 391,162.5C 386.8,166.714 381.966,167.548 376.5,165C 369.902,157.303 369.902,149.636 376.5,142C 381.966,139.452 386.8,140.286 391,144.5C 391.49,143.207 391.657,141.873 391.5,140.5C 393.833,140.5 396.167,140.5 398.5,140.5 Z"/></g>
<g><path style="opacity:1" fill="#111415" d="M 382.5,147.5 C 391.769,147.595 393.769,151.428 388.5,159C 380.992,160.141 378.492,156.974 381,149.5C 381.717,148.956 382.217,148.289 382.5,147.5 Z"/></g>
<g><path style="opacity:1" fill="#aab3b2" d="M 328.5,132.5 C 330.948,131.527 333.615,131.194 336.5,131.5C 336.5,143.167 336.5,154.833 336.5,166.5C 332.821,166.94 329.488,166.273 326.5,164.5C 327.988,161.814 328.655,162.147 328.5,165.5C 330.833,165.5 333.167,165.5 335.5,165.5C 335.5,154.5 335.5,143.5 335.5,132.5C 333.167,132.5 330.833,132.5 328.5,132.5 Z"/></g>
<g><path style="opacity:1" fill="#585e5f" d="M 283.5,154.5 C 277.594,154.854 271.927,155.854 266.5,157.5C 265.596,156.791 265.263,155.791 265.5,154.5C 271.5,154.5 277.5,154.5 283.5,154.5 Z"/></g>
<g><path style="opacity:1" fill="#4c4d4d" d="M 160.5,188.5 C 160.818,193.032 160.485,197.366 159.5,201.5C 152.059,197.61 144.726,193.444 137.5,189C 131.548,183.84 130.215,177.84 133.5,171C 135.167,170.333 136.833,170.333 138.5,171C 143.833,174 149.167,177 154.5,180C 157.371,182.249 159.371,185.082 160.5,188.5 Z"/></g>
<g><path style="opacity:1" fill="#8f9392" d="M 184.5,170.5 C 192.505,169.342 195.339,172.675 193,180.5C 191.332,184.342 188.832,187.509 185.5,190C 178.415,194.293 171.249,198.46 164,202.5C 162.644,195.424 163.644,188.757 167,182.5C 172.813,178.354 178.646,174.354 184.5,170.5 Z"/></g>
<g><path style="opacity:1" fill="#212525" d="M 261.5,193.5 C 258.969,200.631 261.302,203.297 268.5,201.5C 268.5,198.833 268.5,196.167 268.5,193.5C 266.5,193.5 264.5,193.5 262.5,193.5C 264.607,192.532 266.941,192.198 269.5,192.5C 269.5,195.833 269.5,199.167 269.5,202.5C 267.512,202.827 265.512,203.16 263.5,203.5C 260.763,202.071 258.096,201.404 255.5,201.5C 256.96,198.373 256.627,195.373 254.5,192.5C 256.308,191.683 257.808,192.35 259,194.5C 258.923,193.262 259.089,192.262 259.5,191.5C 260.522,191.855 261.189,192.522 261.5,193.5 Z"/></g>
<g><path style="opacity:1" fill="#88533a" d="M 160.5,188.5 C 161.812,193.015 161.812,197.682 160.5,202.5C 159.893,202.376 159.56,202.043 159.5,201.5C 160.485,197.366 160.818,193.032 160.5,188.5 Z"/></g>
<g><path style="opacity:1" fill="#959c9c" d="M 306.5,192.5 C 311.989,192.504 313.822,195.171 312,200.5C 309.667,203.167 307.333,203.167 305,200.5C 304.109,197.502 304.609,194.836 306.5,192.5 Z"/></g>
<g><path style="opacity:1" fill="#9ba3a2" d="M 300.5,194.5 C 300.802,197.059 300.468,199.393 299.5,201.5C 299.662,199.473 299.495,197.473 299,195.5C 297.667,194.167 296.333,194.167 295,195.5C 294.808,197.577 294.308,199.577 293.5,201.5C 292.52,198.914 292.187,196.247 292.5,193.5C 294.199,193.38 295.865,193.046 297.5,192.5C 299.038,192.453 300.038,193.12 300.5,194.5 Z"/></g>
<g><path style="opacity:1" fill="#0a0f10" d="M 282.5,196.5 C 282.5,196.167 282.5,195.833 282.5,195.5C 285.139,193.823 286.806,194.49 287.5,197.5C 286.976,200.396 285.476,201.063 283,199.5C 282.517,198.552 282.351,197.552 282.5,196.5 Z"/></g>
<g><path style="opacity:1" fill="#1b1f1f" d="M 306.5,194.5 C 307.833,194.5 309.167,194.5 310.5,194.5C 310.5,195.5 310.5,196.5 310.5,197.5C 309.167,197.5 307.833,197.5 306.5,197.5C 306.5,196.5 306.5,195.5 306.5,194.5 Z"/></g>
<g><path style="opacity:1" fill="#c1cac9" d="M 316.5,193.5 C 321.297,193.126 321.964,193.792 318.5,195.5C 317.692,197.423 317.192,199.423 317,201.5C 316.503,198.854 316.336,196.187 316.5,193.5 Z"/></g>
<g><path style="opacity:1" fill="#acb4b3" d="M 330.5,190.5 C 332.414,193.684 333.08,197.351 332.5,201.5C 325.724,203.712 322.891,201.379 324,194.5C 326.041,193.577 328.208,193.244 330.5,193.5C 330.5,192.5 330.5,191.5 330.5,190.5 Z"/></g>
<g><path style="opacity:1" fill="#090e0f" d="M 326.5,194.5 C 330.35,194.701 331.35,196.534 329.5,200C 325.537,200.118 324.537,198.284 326.5,194.5 Z"/></g>
<g><path style="opacity:1" fill="#bcc5c4" d="M 261.5,193.5 C 261.833,193.5 262.167,193.5 262.5,193.5C 264.5,193.5 266.5,193.5 268.5,193.5C 268.5,196.167 268.5,198.833 268.5,201.5C 261.302,203.297 258.969,200.631 261.5,193.5 Z"/></g>
<g><path style="opacity:1" fill="#1c1f20" d="M 262.5,194.5 C 266.692,194.403 268.025,196.236 266.5,200C 261.728,200.81 260.395,198.977 262.5,194.5 Z"/></g>
<g><path style="opacity:1" fill="#4e5454" d="M 300.5,194.5 C 301.8,197.024 301.8,199.691 300.5,202.5C 299.893,202.376 299.56,202.043 299.5,201.5C 300.468,199.393 300.802,197.059 300.5,194.5 Z"/></g>
<g><path style="opacity:1" fill="#8d9594" d="M 239.5,192.5 C 241.665,192.116 243.332,192.783 244.5,194.5C 243.167,194.833 241.833,195.167 240.5,195.5C 242.389,196.604 244.055,197.937 245.5,199.5C 243.616,203.017 241.283,203.351 238.5,200.5C 240.117,200.331 241.784,199.997 243.5,199.5C 239.246,198.65 237.913,196.316 239.5,192.5 Z"/></g>
<g><path style="opacity:1" fill="#abb3b3" d="M 254.5,192.5 C 256.627,195.373 256.96,198.373 255.5,201.5C 255.756,199.208 255.423,197.041 254.5,195C 253.216,194.316 252.049,194.483 251,195.5C 250.004,202.942 249.171,203.108 248.5,196C 248.833,194.167 249.167,192.333 249.5,190.5C 250.251,191.376 250.751,192.376 251,193.5C 252.011,192.663 253.178,192.33 254.5,192.5 Z"/></g>
<g><path style="opacity:1" fill="#121516" d="M 306.5,198.5 C 307.978,198.238 309.311,198.571 310.5,199.5C 309.833,199.833 309.167,200.167 308.5,200.5C 307.287,200.253 306.62,199.586 306.5,198.5 Z"/></g>
<g><path style="opacity:1" fill="#9ea6a6" d="M 228.5,193.5 C 230.467,193.261 232.301,193.594 234,194.5C 234.667,195.167 234.667,195.833 234,196.5C 231.468,193.628 229.635,193.961 228.5,197.5C 229.635,201.039 231.468,201.372 234,198.5C 234.544,200.845 233.544,202.179 231,202.5C 226.3,200.482 225.467,197.482 228.5,193.5 Z"/></g>
<g><path style="opacity:1" fill="#a1a9a9" d="M 272.5,193.5 C 274.199,193.34 275.866,193.506 277.5,194C 276.584,194.374 275.75,194.874 275,195.5C 274.808,197.577 274.308,199.577 273.5,201.5C 272.52,198.914 272.187,196.247 272.5,193.5 Z"/></g>
<g><path style="opacity:1" fill="#e6f0ef" d="M 280.5,193.5 C 281.5,193.833 282.167,194.5 282.5,195.5C 282.5,195.833 282.5,196.167 282.5,196.5C 281.523,199.287 281.19,202.287 281.5,205.5C 280.517,201.702 280.183,197.702 280.5,193.5 Z"/></g>
<g><path style="opacity:1" fill="#9ba3a3" d="M 280.5,193.5 C 280.56,192.957 280.893,192.624 281.5,192.5C 283.776,193.213 286.109,193.713 288.5,194C 291.007,200.134 289.173,202.634 283,201.5C 282.79,203.058 282.29,204.391 281.5,205.5C 281.19,202.287 281.523,199.287 282.5,196.5C 282.351,197.552 282.517,198.552 283,199.5C 285.476,201.063 286.976,200.396 287.5,197.5C 286.806,194.49 285.139,193.823 282.5,195.5C 282.167,194.5 281.5,193.833 280.5,193.5 Z"/></g>
</svg>
